<svg width="680" height="400" viewBox="0 0 680 400" xmlns="http://www.w3.org/2000/svg">
<rect width="680" height="400" fill="#080b10"/>
<circle cx="340" cy="180" r="140" fill="none" stroke="#00e5ff" stroke-width="1.5" opacity="0.15"/>
<circle cx="340" cy="180" r="110" fill="none" stroke="#00e5ff" stroke-width="1" opacity="0.1"/>
<line x1="340" y1="30" x2="340" y2="90" stroke="#00e5ff" stroke-width="1.5" opacity="0.3"/>
<line x1="340" y1="270" x2="340" y2="330" stroke="#00e5ff" stroke-width="1.5" opacity="0.3"/>
<line x1="190" y1="180" x2="250" y2="180" stroke="#00e5ff" stroke-width="1.5" opacity="0.3"/>
<line x1="430" y1="180" x2="490" y2="180" stroke="#00e5ff" stroke-width="1.5" opacity="0.3"/>
<path d="M218,88 L218,108 L238,108" fill="none" stroke="#00e5ff" stroke-width="2" opacity="0.4"/>
<path d="M462,88 L462,108 L442,108" fill="none" stroke="#00e5ff" stroke-width="2" opacity="0.4"/>
<path d="M218,272 L218,252 L238,252" fill="none" stroke="#00e5ff" stroke-width="2" opacity="0.4"/>
<path d="M462,272 L462,252 L442,252" fill="none" stroke="#00e5ff" stroke-width="2" opacity="0.4"/>
<polygon points="340,46 380,70 380,118 340,142 300,118 300,70" fill="#00e5ff" opacity="0.08"/>
<polygon points="340,46 380,70 380,118 340,142 300,118 300,70" fill="none" stroke="#00e5ff" stroke-width="1.5" opacity="0.4"/>
<path d="M312,116 L312,76 L340,104 L368,76 L368,116" fill="none" stroke="#00e5ff" stroke-width="5" stroke-linecap="round" stroke-linejoin="round"/>
<circle cx="340" cy="180" r="5" fill="#00e5ff" opacity="0.6"/>
<circle cx="340" cy="180" r="2" fill="#00e5ff"/>
<text x="340" y="232" text-anchor="middle" font-family="'Courier New', Courier, monospace" font-size="80" font-weight="bold" fill="white" letter-spacing="12">META</text>
<text x="340" y="308" text-anchor="middle" font-family="'Courier New', Courier, monospace" font-size="80" font-weight="bold" fill="#00e5ff" letter-spacing="12">DOOTY</text>
<line x1="160" y1="240" x2="520" y2="240" stroke="#00e5ff" stroke-width="1" opacity="0.2"/>
<text x="340" y="344" text-anchor="middle" font-family="'Courier New', Courier, monospace" font-size="13" fill="#484f58" letter-spacing="4">// THE META. SIMPLIFIED.</text>
<rect x="160" y="358" width="360" height="2" rx="1" fill="#00e5ff" opacity="0.2"/>
<rect x="294" y="364" width="92" height="20" rx="3" fill="#00e5ff" opacity="0.08"/>
<rect x="294" y="364" width="92" height="20" rx="3" fill="none" stroke="#00e5ff" stroke-width="1" opacity="0.3"/>
<text x="340" y="378" text-anchor="middle" font-family="'Courier New', Courier, monospace" font-size="10" fill="#00e5ff" letter-spacing="2" opacity="0.7">COD LOADOUTS</text>
</svg>